<svg xmlns="http://www.w3.org/2000/svg" xmlns:xlink="http://www.w3.org/1999/xlink" width="376" height="427.475" viewBox="0 0 376 427.475">
  <defs>
    <linearGradient id="linear-gradient" y1="0.339" x2="1" y2="0.337" gradientUnits="objectBoundingBox">
      <stop offset="0" stop-color="#6fdefa"/>
      <stop offset="1" stop-color="#8de061"/>
    </linearGradient>
  </defs>
  <path id="Exclusão_1" data-name="Exclusão 1" d="M-260.5,426.475h-4a46.4,46.4,0,0,1-16.224-2.9,46.351,46.351,0,0,1-13.733-8.015,46.509,46.509,0,0,1-10.192-12.076,46.017,46.017,0,0,1-5.6-15.089h28.993a20.767,20.767,0,0,0,18.937,12.178,20.767,20.767,0,0,0,18.937-12.178h28.632a46.03,46.03,0,0,1-5.6,15.089,46.545,46.545,0,0,1-10.192,12.076,46.359,46.359,0,0,1-13.732,8.015A46.4,46.4,0,0,1-260.5,426.475Zm-1.759-32a14.47,14.47,0,0,1-14.52-14.387,14.47,14.47,0,0,1,14.52-14.387,14.47,14.47,0,0,1,14.52,14.387A14.47,14.47,0,0,1-262.259,394.479ZM-281.75,372.87h-28.7A46.424,46.424,0,0,1-294.9,344.886,46.3,46.3,0,0,1-281,336.6a46.374,46.374,0,0,1,16.5-3.009h4A46.371,46.371,0,0,1-244,336.6a46.344,46.344,0,0,1,13.9,8.288,46.432,46.432,0,0,1,15.552,27.981h-28.34a20.811,20.811,0,0,0-19.429-13.37,20.815,20.815,0,0,0-19.43,13.371ZM-75,1H-450V0H-75V1Z" transform="translate(450.5 0.5)" stroke="rgba(0,0,0,0)" stroke-miterlimit="10" stroke-width="1" fill="url(#linear-gradient)"/>
</svg>
