<svg xmlns="http://www.w3.org/2000/svg" width="14" height="16.153" viewBox="0 0 14 16.153">
  <path id="Bug" d="M10.023,16.154h0A9.828,9.828,0,0,1,7.657,11.8a10.32,10.32,0,0,1,.69-5.133A9.554,9.554,0,0,0,10.2,5.81a11.169,11.169,0,0,0,1.5-1.534A7.522,7.522,0,0,1,14,9.963a6.791,6.791,0,0,1-1.989,4.545,9.938,9.938,0,0,1-1.988,1.646Zm-6.047,0h0a9.932,9.932,0,0,1-1.987-1.646A6.792,6.792,0,0,1,0,9.963,7.458,7.458,0,0,1,2.3,4.276,11.23,11.23,0,0,0,3.8,5.81a9.663,9.663,0,0,0,1.858.86A10.321,10.321,0,0,1,6.342,11.8a9.829,9.829,0,0,1-2.366,4.351ZM7.151,5.7A5.5,5.5,0,0,1,3.336,3.6s0,0,.009-.007A8.365,8.365,0,0,1,4.73,2.93L3.407,1.352A.75.75,0,1,1,4.557.388L6.249,2.4a.836.836,0,0,1,.086.127A5.225,5.225,0,0,1,6.943,2.5a6.606,6.606,0,0,1,.855.059.77.77,0,0,1,.047-.077L9.355.321A.75.75,0,0,1,10.4.137a.749.749,0,0,1,.184,1.044L9.368,2.917a10.05,10.05,0,0,1,1.328.525C10.553,3.677,9.258,5.7,7.151,5.7Z" transform="translate(0 -0.001)" fill="#fff"/>
</svg>
